<?xml version="1.0" encoding="UTF-8"?>
<!DOCTYPE svg PUBLIC "-//W3C//DTD SVG 1.1//EN" "http://www.w3.org/Graphics/SVG/1.1/DTD/svg11.dtd">
<svg xmlns="http://www.w3.org/2000/svg" version="1.1" width="638px" height="542px" style="shape-rendering:geometricPrecision; text-rendering:geometricPrecision; image-rendering:optimizeQuality; fill-rule:evenodd; clip-rule:evenodd" xmlns:xlink="http://www.w3.org/1999/xlink">
<g><path style="opacity:0.978" fill="#fffefe" d="M 549.5,251.5 C 549.5,267.167 549.5,282.833 549.5,298.5C 549.5,299.833 549.5,301.167 549.5,302.5C 542.675,305.808 535.675,308.975 528.5,312C 513.652,317.671 498.652,322.838 483.5,327.5C 483.5,308.5 483.5,289.5 483.5,270.5C 484.491,264.021 484.824,257.354 484.5,250.5C 484.638,245.586 483.972,240.919 482.5,236.5C 482.524,232.213 481.19,228.547 478.5,225.5C 472,206.499 459,194.666 439.5,190C 387.177,184.065 358.344,207.232 353,259.5C 352.5,283.164 352.333,306.831 352.5,330.5C 349.753,330.187 347.086,330.52 344.5,331.5C 336.431,350.208 328.264,368.875 320,387.5C 312.008,368.867 304.008,350.201 296,331.5C 292.943,330.549 289.777,330.216 286.5,330.5C 286.894,301.144 286.394,271.811 285,242.5C 279.983,207.308 259.817,189.308 224.5,188.5C 210.902,189.15 197.902,192.483 185.5,198.5C 178.546,203.62 172.379,209.62 167,216.5C 165.878,218.407 165.045,220.407 164.5,222.5C 146.013,230.63 127.346,238.463 108.5,246C 101.709,247.902 95.0419,250.069 88.5,252.5C 88.5,213.167 88.5,173.833 88.5,134.5C 109.167,134.5 129.833,134.5 150.5,134.5C 150.333,145.172 150.5,155.839 151,166.5C 161.377,155.436 173.377,146.77 187,140.5C 222.834,127.027 258.667,127.194 294.5,141C 310.457,149.29 323.624,160.79 334,175.5C 349.343,157.192 368.509,144.359 391.5,137C 422.279,128.04 452.946,128.374 483.5,138C 516.89,151.73 537.723,176.23 546,211.5C 548.89,224.681 550.056,238.014 549.5,251.5 Z"/></g>
<g><path style="opacity:0.97" fill="#ffca02" d="M 153.5,273.5 C 149.856,274.315 146.189,275.148 142.5,276C 125.016,283.14 107.35,289.974 89.5,296.5C 88.7025,296.957 88.3691,297.624 88.5,298.5C 86.1055,299.015 83.7722,299.681 81.5,300.5C 63.3408,306.889 45.3408,314.555 27.5,323.5C 27.1672,307.486 27.5006,291.486 28.5,275.5C 44.4148,268.914 60.4148,262.414 76.5,256C 80.5587,254.924 84.5587,253.757 88.5,252.5C 95.0419,250.069 101.709,247.902 108.5,246C 127.346,238.463 146.013,230.63 164.5,222.5C 182.197,215.822 199.864,208.989 217.5,202C 219.81,201.503 222.143,201.337 224.5,201.5C 224.667,216.504 224.5,231.504 224,246.5C 215.82,250.23 207.32,253.397 198.5,256C 197.338,256.827 196.171,257.66 195,258.5C 180.817,262.836 166.984,267.836 153.5,273.5 Z"/></g>
<g><path style="opacity:0.938" fill="#ffd801" d="M 478.5,225.5 C 481.19,228.547 482.524,232.213 482.5,236.5C 482.362,241.414 483.028,246.081 484.5,250.5C 484.824,257.354 484.491,264.021 483.5,270.5C 482.542,270.953 481.708,271.619 481,272.5C 458.118,263.71 435.285,255.043 412.5,246.5C 412.5,231.5 412.5,216.5 412.5,201.5C 414.527,201.338 416.527,201.505 418.5,202C 438.386,210.129 458.386,217.962 478.5,225.5 Z"/></g>
<g><path style="opacity:1" fill="#ffe675" d="M 482.5,236.5 C 483.972,240.919 484.638,245.586 484.5,250.5C 483.028,246.081 482.362,241.414 482.5,236.5 Z"/></g>
<g><path style="opacity:0.951" fill="#ffd700" d="M 549.5,251.5 C 550.267,252.172 550.934,253.005 551.5,254C 570.468,261.267 589.468,268.434 608.5,275.5C 607.358,277.433 605.692,278.933 603.5,280C 588.791,286.836 574.124,293.67 559.5,300.5C 558.583,299.873 557.583,299.539 556.5,299.5C 554.139,299.326 551.806,298.993 549.5,298.5C 549.5,282.833 549.5,267.167 549.5,251.5 Z"/></g>
<g><path style="opacity:0.992" fill="#fffefe" d="M 153.5,273.5 C 153.5,291.5 153.5,309.5 153.5,327.5C 152.222,343.02 152.222,358.687 153.5,374.5C 153.5,386.5 153.5,398.5 153.5,410.5C 131.833,410.5 110.167,410.5 88.5,410.5C 88.5,389.167 88.5,367.833 88.5,346.5C 88.5,331.833 88.5,317.167 88.5,302.5C 88.5,301.167 88.5,299.833 88.5,298.5C 88.3691,297.624 88.7025,296.957 89.5,296.5C 107.35,289.974 125.016,283.14 142.5,276C 146.189,275.148 149.856,274.315 153.5,273.5 Z"/></g>
<g><path style="opacity:0.968" fill="#ffca02" d="M 608.5,275.5 C 609.662,291.661 609.828,307.995 609,324.5C 608.097,325.701 606.931,326.535 605.5,327C 586.939,334.447 568.272,341.614 549.5,348.5C 549.565,348.062 549.399,347.728 549,347.5C 527.89,355.651 506.723,363.817 485.5,372C 484.244,372.417 483.577,373.25 483.5,374.5C 469.805,379.352 456.138,384.185 442.5,389C 435.226,393.079 427.56,396.412 419.5,399C 417.19,399.497 414.857,399.663 412.5,399.5C 412.333,384.496 412.5,369.496 413,354.5C 413.903,353.299 415.069,352.465 416.5,352C 438.909,343.766 461.242,335.6 483.5,327.5C 498.652,322.838 513.652,317.671 528.5,312C 535.675,308.975 542.675,305.808 549.5,302.5C 551.855,301.341 554.188,300.341 556.5,299.5C 557.583,299.539 558.583,299.873 559.5,300.5C 574.124,293.67 588.791,286.836 603.5,280C 605.692,278.933 607.358,277.433 608.5,275.5 Z"/></g>
<g><path style="opacity:0.948" fill="#ffd700" d="M 81.5,300.5 C 82.9477,301.816 85.281,302.483 88.5,302.5C 88.5,317.167 88.5,331.833 88.5,346.5C 85.5491,346.892 82.5491,346.392 79.5,345C 63.1667,338.667 46.8333,332.333 30.5,326C 29.4293,325.148 28.4293,324.315 27.5,323.5C 45.3408,314.555 63.3408,306.889 81.5,300.5 Z"/></g>
<g><path style="opacity:0.934" fill="#ffd805" d="M 153.5,327.5 C 176.897,336.58 200.397,345.58 224,354.5C 224.5,369.496 224.667,384.496 224.5,399.5C 222.473,399.662 220.473,399.495 218.5,399C 203.013,392.281 187.346,385.947 171.5,380C 165.572,377.857 159.572,376.023 153.5,374.5C 152.222,358.687 152.222,343.02 153.5,327.5 Z"/></g>
<g><path style="opacity:0.987" fill="#fffefe" d="M 549.5,348.5 C 549.5,369.167 549.5,389.833 549.5,410.5C 527.5,410.5 505.5,410.5 483.5,410.5C 483.5,398.5 483.5,386.5 483.5,374.5C 483.577,373.25 484.244,372.417 485.5,372C 506.723,363.817 527.89,355.651 549,347.5C 549.399,347.728 549.565,348.062 549.5,348.5 Z"/></g>
<g><path style="opacity:0.963" fill="#fefffe" d="M 286.5,358.5 C 294.351,375.545 301.685,392.879 308.5,410.5C 301.167,410.5 293.833,410.5 286.5,410.5C 286.5,393.167 286.5,375.833 286.5,358.5 Z"/></g>
<g><path style="opacity:0.906" fill="#fefffe" d="M 351.5,358.5 C 352.497,375.659 352.83,392.992 352.5,410.5C 345.167,410.5 337.833,410.5 330.5,410.5C 337.5,393.167 344.5,375.833 351.5,358.5 Z"/></g>
</svg>
